<?xml version="1.0" standalone="no"?>
<!DOCTYPE svg PUBLIC "-//W3C//DTD SVG 20010904//EN"
 "http://www.w3.org/TR/2001/REC-SVG-20010904/DTD/svg10.dtd">
<svg version="1.0" xmlns="http://www.w3.org/2000/svg"
 width="258.000000pt" height="84.000000pt" viewBox="0 0 258.000000 84.000000"
 preserveAspectRatio="xMidYMid meet">

<g transform="translate(0.000000,84.000000) scale(0.100000,-0.100000)"
fill="#000000" stroke="none">
<path d="M173 615 c-40 -17 -53 -42 -53 -104 0 -74 26 -99 115 -113 97 -14
117 -23 113 -50 -5 -37 -103 -47 -205 -21 -21 5 -23 2 -23 -40 0 -42 2 -45 31
-51 17 -3 69 -6 116 -6 134 0 183 32 183 121 0 66 -25 95 -98 109 -134 26
-127 23 -127 49 0 41 50 47 183 24 l33 -5 -3 43 c-3 36 -7 44 -28 50 -46 13
-203 9 -237 -6z"/>
<path d="M1627 603 c-2 -5 -7 -20 -11 -35 -5 -21 -12 -28 -31 -28 -22 0 -25
-4 -25 -40 0 -33 3 -40 20 -40 18 0 20 -7 20 -89 0 -74 3 -92 21 -115 18 -23
27 -26 85 -26 l64 0 0 46 c0 42 -2 46 -21 41 -41 -11 -49 1 -49 74 l0 69 35 0
c34 0 35 1 35 40 0 39 -1 40 -35 40 -33 0 -35 2 -35 35 0 33 -2 35 -34 35 -19
0 -37 -3 -39 -7z"/>
<path d="M564 521 c-58 -27 -83 -96 -64 -186 16 -79 43 -99 139 -103 134 -7
176 34 169 164 -2 54 -8 78 -23 94 -45 51 -146 65 -221 31z m150 -113 c12 -48
-4 -85 -40 -94 -43 -11 -78 14 -82 58 -5 61 11 80 66 76 45 -3 47 -5 56 -40z"/>
<path d="M870 385 l0 -155 50 0 50 0 0 94 c0 73 4 98 16 110 19 20 44 20 69 2
16 -11 20 -30 23 -110 l4 -96 50 0 50 0 -3 119 c-3 102 -7 124 -25 148 -37 50
-122 56 -164 11 l-20 -22 0 27 c0 26 -2 27 -50 27 l-50 0 0 -155z"/>
<path d="M1310 527 c-52 -18 -80 -67 -80 -139 0 -120 43 -158 178 -158 103 0
112 4 112 46 l0 34 -84 0 c-67 0 -88 4 -102 18 -17 16 -13 17 92 22 l109 5 3
40 c7 111 -103 175 -228 132z m132 -81 c15 -22 7 -26 -57 -26 -64 0 -72 4 -57
26 15 25 98 25 114 0z"/>
<path d="M1891 528 c-51 -19 -74 -57 -79 -131 -8 -128 36 -171 170 -165 75 3
82 5 108 35 54 61 48 202 -11 246 -33 24 -139 33 -188 15z m127 -90 c18 -18
15 -94 -4 -112 -19 -20 -64 -21 -88 -3 -22 16 -26 88 -6 112 15 18 81 20 98 3z"/>
<path d="M2235 533 c-39 -9 -65 -44 -65 -85 0 -56 30 -82 113 -98 42 -8 67
-17 67 -25 0 -19 -65 -27 -127 -17 l-53 9 0 -37 c0 -48 6 -50 129 -50 84 0
102 3 125 21 22 17 26 28 26 69 0 59 -17 74 -101 91 -67 13 -84 22 -74 39 6 9
30 11 87 7 l79 -5 -3 36 c-3 32 -7 38 -33 43 -35 8 -141 9 -170 2z"/>
</g>
</svg>
