<?xml version="1.0" ?><svg id="Outline" style="stroke: white; fill: white;" version="1.1" viewBox="0 0 64 64" xml:space="preserve" xmlns="http://www.w3.org/2000/svg" xmlns:xlink="http://www.w3.org/1999/xlink"><title/><desc/><g><rect height="2" transform="matrix(0.7071 -0.7071 0.7071 0.7071 -31.2328 34.5596)" width="8" x="22.101" y="53.981"/><rect height="2" transform="matrix(0.7071 -0.7071 0.7071 0.7071 -22.5049 41.4885)" width="28" x="24.829" y="46.91"/><rect height="2" transform="matrix(0.7071 -0.7071 0.7071 0.7071 -29.3542 32.024)" width="6" x="20.979" y="50.446"/><rect height="2" transform="matrix(0.7071 -0.7071 0.7071 0.7071 -20.8481 45.4885)" width="20" x="34.485" y="46.91"/><path d="M60.041,21.039L41.657,2.655c-0.289-0.289-0.725-0.373-1.101-0.212l-19.799,8.485c-0.235,0.102-0.423,0.289-0.525,0.525   l-8.485,19.799c-0.161,0.376-0.077,0.812,0.212,1.101l18.385,18.385c0.39,0.39,1.023,0.391,1.414,0l16.263-16.263l-1.414-1.414   L32.359,47.308l1.768-15.91l6.575-6.575l9.36-1.04l-8.014,2.671c-0.37,0.123-0.635,0.452-0.678,0.839   c-0.043,0.389,0.148,0.769,0.479,0.967l6.857,4.114l4.114,6.857c0.199,0.33,0.578,0.522,0.967,0.479   c0.388-0.042,0.716-0.307,0.839-0.678l5.657-16.971C60.403,21.703,60.31,21.308,60.041,21.039   C60.042,21.04,60.041,21.04,60.041,21.039z M21.913,12.609l18.809-8.061l3.339,3.339l-4.233,13.907v-3.584   c0-3.671-2.986-6.657-6.657-6.657c-3.353,0-6.135,2.494-6.591,5.722c-3.23,0.457-5.722,3.238-5.722,6.591   c0,3.671,2.986,6.657,6.657,6.657h3.584l-13.907,4.233l-3.339-3.339L21.913,12.609z M37.829,24.868l-3.657,3.657h-6.657   c-2.568,0-4.657-2.089-4.657-4.657c0.001-2.568,2.089-4.656,4.657-4.657c0.552,0,1-0.447,1-1c0.001-2.568,2.089-4.656,4.657-4.657   c2.568,0,4.657,2.089,4.657,4.657V24.868z M30.286,47.853L18.794,36.361l13.216-4.022L30.286,47.853z M45.664,9.491l11.492,11.492   l-15.514,1.724L45.664,9.491z M53.416,36.338l-2.722-4.537l2.276-2.276l-1.414-1.414l-2.276,2.276l-4.537-2.722l13.01-4.337   L53.416,36.338z"/><rect height="2" transform="matrix(0.7071 -0.7071 0.7071 0.7071 -30.0404 41.6809)" width="2" x="34.293" y="56.102"/><rect height="2" transform="matrix(0.7071 -0.7071 0.7071 0.7071 -36.1826 32.5093)" width="2" x="20.151" y="58.931"/></g></svg>